<svg width="133" height="33" viewBox="0 0 133 33" fill="none" xmlns="http://www.w3.org/2000/svg">
<g clip-path="url(#clip0_5129_10558)">
<mask id="mask0_5129_10558" style="mask-type:luminance" maskUnits="userSpaceOnUse" x="0" y="0" width="133" height="33">
<path d="M133 0.117081H-1.90735e-06V32.2693H133V0.117081Z" fill="white"/>
</mask>
<g mask="url(#mask0_5129_10558)">
<path d="M109.235 5.65251V4.25068H104.514V10.2414H106.156V7.88106H108.025V6.47923H106.156V5.65251H109.235ZM100.644 7.24005C100.644 8.31239 100.273 8.86953 99.6077 8.86953C98.9428 8.86953 98.5474 8.27045 98.5474 7.22208C98.5474 6.1737 98.9248 5.5926 99.5898 5.5926C100.255 5.5926 100.644 6.19167 100.644 7.24005ZM102.357 7.24005C102.357 5.25712 101.225 4.1728 99.6077 4.1728C97.9902 4.1728 96.834 5.2691 96.834 7.25802C96.834 9.24694 97.9723 10.3253 99.5898 10.3253C101.207 10.3253 102.357 9.22897 102.357 7.24005ZM90.9212 4.24469H89.0281L88.5668 5.14329C88.3059 5.64229 88.0797 6.15873 87.8899 6.6889C87.6949 6.15986 87.4668 5.64364 87.2069 5.14329L86.7456 4.24469H84.8406L87.0452 8.00686V10.2055H88.7106V7.98889L90.9212 4.24469ZM83.1332 5.68246V4.24469H78.143V5.68246H79.8084V10.2055H81.4738V5.68845L83.1332 5.68246ZM75.9444 4.24469H74.2849V10.2354H75.9743L75.9444 4.24469ZM71.9965 8.36031C71.9965 7.24604 71.3315 6.78475 69.8338 6.4313C69.067 6.25158 68.8514 6.14974 68.8514 5.92808C68.8514 5.70643 68.9712 5.55666 69.4504 5.55666C70.0483 5.5695 70.6277 5.76612 71.1099 6.11979L71.9126 4.82579C71.2106 4.34052 70.3689 4.09854 69.5163 4.13685C68.0786 4.13685 67.168 4.89767 67.168 6.01794C67.168 7.13821 67.8569 7.60548 69.2947 7.93497C70.0974 8.12668 70.3131 8.25847 70.3131 8.48013C70.3131 8.70178 70.1214 8.86953 69.5343 8.86953C68.9089 8.82579 68.3059 8.61927 67.785 8.27045L67.0242 9.55846C67.7776 10.0279 68.6466 10.2788 69.5343 10.2833C70.9661 10.2833 71.9965 9.72021 71.9965 8.35432M63.3099 6.20965C63.3099 6.63499 63.0943 6.87461 62.5611 6.87461H61.5846V5.5926H62.5851C63.1063 5.5926 63.3099 5.85619 63.3099 6.23361M65.0712 10.2114L63.8731 7.93497C64.2117 7.79305 64.4973 7.54852 64.6896 7.23579C64.882 6.92307 64.9714 6.5579 64.9454 6.19167C64.9454 4.77786 64.0168 4.25068 62.621 4.25068H59.9551V10.2414H61.5786V8.20455H62.2436L63.2201 10.2114H65.0712ZM57.7086 10.2114V8.8216H54.7133V7.80318H56.4745V6.4313H54.7192V5.63453H57.6487V4.25068H53.0838V10.2414L57.7086 10.2114ZM51.0409 4.22072H49.2018L48.7645 5.82025C48.5608 6.56909 48.2732 7.77322 48.1654 8.34234C48.0576 7.74327 47.764 6.54513 47.5663 5.82025L47.135 4.22072H45.2779L47.3267 10.2114H48.9981L51.0409 4.22072ZM43.1751 4.22072H41.4917V10.2114H43.1751V4.22072ZM39.0415 10.2114V4.22072H37.46V5.84421C37.46 6.32946 37.46 7.12622 37.5139 7.38982C37.3821 7.13821 36.8549 6.34743 36.5853 5.982L35.2674 4.22072H33.8116V10.2114H35.3992V8.41423C35.3992 7.92898 35.3992 7.13821 35.3453 6.86863C35.501 7.13821 36.0102 7.90502 36.2738 8.27045L37.6996 10.2354L39.0415 10.2114ZM31.6729 7.66539V4.25068H29.9836V7.66539C29.9836 8.39626 29.714 8.86353 29.061 8.86353C28.408 8.86353 28.1264 8.40824 28.1264 7.66539V4.25068H26.443V7.66539C26.443 9.55846 27.5393 10.3073 29.037 10.3073C30.5347 10.3073 31.6729 9.55846 31.6729 7.66539Z" fill="white"/>
<path d="M124.14 15.2856V21.5399H122.942V24.044H132.994V19.7427H130.184V21.5399H127.423V19.4731H129.753V17.1607H127.423V15.2496H130.136V16.8731H132.946V12.7815H122.954V15.2856H124.14ZM114.608 17.4662V15.2496H116.088C116.549 15.2496 116.729 15.2856 116.825 15.3814C116.921 15.4773 116.999 15.7828 116.999 16.3579C116.999 16.933 116.969 17.1787 116.825 17.3344C116.681 17.4902 116.549 17.4662 116.088 17.4662H114.608ZM120.306 20.8989C120.306 19.2814 119.761 18.91 118.634 18.6524V18.6224C119.94 18.3648 120.467 17.8796 120.467 15.8907C120.467 14.4948 120.306 13.8718 119.808 13.3746C119.53 13.1437 119.207 12.9717 118.86 12.8687C118.513 12.7658 118.149 12.7341 117.79 12.7755H110.133V15.2796H111.332V21.5399H110.133V24.044H115.831V21.5399H114.632V19.8026H115.789C116.334 19.8026 116.526 19.8685 116.669 20.0183C116.813 20.168 116.879 20.3837 116.915 21.2164C116.975 23.0975 117.107 23.4989 117.346 23.7385C117.586 23.9781 117.778 24.044 118.455 24.044H121.45V21.5399H120.372C120.372 21.3482 120.342 21.1206 120.342 20.9408M102.31 18.4367C102.31 15.9805 102.387 15.6271 102.501 15.5192C102.615 15.4114 102.759 15.3874 103.238 15.3874H104.586C105.065 15.3874 105.227 15.4234 105.323 15.5192C105.419 15.6151 105.515 15.9805 105.515 18.4367C105.515 20.8929 105.437 21.2464 105.323 21.3602C105.209 21.474 105.065 21.486 104.586 21.486H103.238C102.759 21.486 102.597 21.486 102.501 21.3602C102.405 21.2344 102.31 20.9109 102.31 18.4367ZM101.956 12.8234C100.758 12.8234 100.303 12.9971 99.8713 13.4225C99.2063 14.0635 98.8409 15.3275 98.8409 18.4247C98.8409 21.5219 99.2063 22.792 99.8713 23.433C100.303 23.8643 100.782 24.032 101.956 24.032H105.868C107.066 24.032 107.521 23.8523 107.953 23.433C108.612 22.792 108.983 21.5219 108.983 18.4247C108.983 15.3275 108.612 14.0635 107.953 13.4225C107.521 12.9852 107.042 12.8234 105.868 12.8234H101.956ZM86.1166 16.0764L87.818 23.415C87.9318 23.8943 88.1235 24.056 88.5369 24.056H90.5917C91.011 24.056 91.1908 23.8943 91.3166 23.415L93.0179 16.0764H93.1797V21.5399H92.2571V24.044H97.6488V21.5399H96.4506V15.2856H97.6488V12.7815H91.658C91.1608 12.7815 90.9332 12.9252 90.8373 13.4345L89.8309 18.6823H89.6811L88.6627 13.4345C88.5668 12.9252 88.3392 12.7815 87.8419 12.7815H81.7614V15.2856H82.9595V21.5399H81.7614V24.044H86.8175V21.5399H85.9189V16.0344L86.1166 16.0764ZM78.6702 21.5399V15.2856H79.9042V12.7815H74.1412V15.2856H75.3812V21.5399H74.1412V24.044H79.9042V21.5399H78.6702ZM68.6716 21.5399V15.2197H70.0016V17.2865H72.5536V12.7815H61.5007V17.2865H64.0528V15.2197H65.3827V21.5399H64.1007V24.044H69.9896V21.5399H68.6716ZM52.5925 21.5399H51.3944V24.044H61.1353V19.6468H58.3376V21.5399H55.8814V15.2856H57.1515V12.7815H51.4064V15.2856H52.6045L52.5925 21.5399ZM43.7323 15.651H43.912L44.6309 18.251H43.0134L43.7323 15.651ZM43.1332 24.038V21.5399H42.1507L42.4023 20.5754H45.2599L45.5295 21.5399H44.5051V23.9961H50.0105V21.5399H49.064L46.4461 13.7879C46.1765 13.0031 45.847 12.7335 45.0981 12.7335H42.8217C42.0549 12.7335 41.7493 13.0031 41.4738 13.7879L38.8558 21.5399H37.9093V24.044L43.1332 24.038ZM34.9858 18.3229C36.136 17.9994 36.7471 17.3105 36.7471 15.6091C36.7979 14.8221 36.54 14.0464 36.0282 13.4464C35.5909 13.0091 35.0817 12.8474 34.0872 12.8474H26.443V15.3515H27.6412V21.5399H26.443V24.044H34.1112C34.4662 24.081 34.8251 24.043 35.1646 23.9326C35.5041 23.8222 35.8167 23.6418 36.0821 23.403C36.3729 23.0865 36.5958 22.7138 36.737 22.3079C36.8781 21.9019 36.9346 21.4713 36.9028 21.0427C36.9028 19.2155 36.2618 18.6464 35.0277 18.3289M30.9181 19.3713H32.7153C32.8093 19.3572 32.9052 19.3627 32.9969 19.3874C33.0887 19.4121 33.1744 19.4556 33.2485 19.515C33.3743 19.6468 33.4402 19.7906 33.4402 20.5095C33.4402 21.2284 33.3563 21.3602 33.2485 21.474C33.1407 21.5878 33.0029 21.6178 32.7153 21.6178H30.9181V19.3713ZM30.9181 17.2565V15.2017H32.7153C33.0209 15.2017 33.1347 15.2496 33.2126 15.3335C33.2904 15.4174 33.3923 15.651 33.3923 16.1962C33.3923 16.7413 33.3084 16.987 33.1946 17.1128C33.0808 17.2386 32.9909 17.2266 32.7153 17.2266L30.9181 17.2565Z" fill="white"/>
</g>
<path d="M-1.90735e-06 0.117081V32.2693L10.0045 27.1233L20.1288 32.2693V0.117081H-1.90735e-06Z" fill="white"/>
<mask id="mask1_5129_10558" style="mask-type:luminance" maskUnits="userSpaceOnUse" x="0" y="0" width="133" height="33">
<path d="M133 0.117081H-1.90735e-06V32.2693H133V0.117081Z" fill="white"/>
</mask>
<g mask="url(#mask1_5129_10558)">
<path d="M14.0662 13.704V13.6681C15.462 13.2787 16.1989 12.47 16.1989 10.3912C16.2627 9.43385 15.9487 8.48967 15.3243 7.76124C14.8031 7.24005 14.18 7.02438 12.9759 7.02438H3.68429V10.0557H5.12206V17.586H3.68429V20.5814H12.9579C13.3893 20.6287 13.8257 20.5843 14.2387 20.4511C14.6516 20.3179 15.0318 20.099 15.3542 19.8086C15.7059 19.4263 15.9755 18.9761 16.1465 18.4857C16.3176 17.9953 16.3864 17.475 16.3487 16.957C16.3487 14.7464 15.5699 14.0455 14.0782 13.6741M9.0999 14.9501H11.3105C11.6579 14.9501 11.8137 14.9861 11.9515 15.1238C12.0893 15.2616 12.1851 15.4533 12.1851 16.322C12.1851 17.1906 12.0893 17.3464 11.9814 17.5081C11.8736 17.6699 11.6879 17.6819 11.3404 17.6819H9.0999V14.9501ZM9.0999 12.3861V9.95984H11.2506C11.622 9.95984 11.7538 10.0197 11.8496 10.1156C11.9455 10.2114 12.0593 10.505 12.0593 11.164C12.0593 11.823 11.9635 12.1165 11.8257 12.2723C11.6879 12.428 11.5741 12.4041 11.2266 12.4041L9.0999 12.3861Z" fill="#0076A8"/>
</g>
</g>
<defs>
<clipPath id="clip0_5129_10558">
<rect width="133" height="32.3864" fill="white"/>
</clipPath>
</defs>
</svg>
